<svg version="1.2" xmlns="http://www.w3.org/2000/svg" viewBox="0 0 800 800" width="800" height="800">
	<title>translate-svgrepo-com</title>
	<style>
		tspan { white-space:pre } 
		.s0 { fill: #000000 } 
		.t1 { font-size: 300px;fill: #000000;font-weight: 700;font-family: "NanumGothicExtraBold", "NanumGothic" } 
	</style>
	<path class="s0" d="m166.7 500v66.7c0 8.3 1.5 16.6 4.6 24.3 3 7.8 7.5 14.9 13.1 21 5.7 6.1 12.5 11.1 20 14.7 7.5 3.7 15.6 5.8 23.9 6.5l5 0.1h100v66.7h-100c-17.5 0-34.8-3.4-51-10.1-16.2-6.8-30.9-16.6-43.2-29-12.4-12.3-22.2-27-29-43.2-6.7-16.2-10.1-33.5-10.1-51v-66.7zm433.3-166.7l146.7 366.7h-71.8l-40.1-100h-136.3l-40 100h-71.8l146.7-366.7zm-33.4 96.2l-41.5 103.8h83zm0-329.5c17.5 0 34.9 3.5 51.1 10.2 16.1 6.7 30.8 16.5 43.2 28.9 12.4 12.4 22.2 27.1 28.9 43.2 6.7 16.2 10.2 33.6 10.2 51.1v66.6h-66.7v-66.6c0-8.8-1.7-17.5-5.1-25.5-3.3-8.1-8.2-15.5-14.4-21.7-6.2-6.2-13.6-11.1-21.7-14.4-8-3.4-16.7-5.1-25.5-5.1h-100v-66.7z"/>
	<text id="한" style="transform: matrix(1.267,0,0,1.267,61,379.986)" >
		<tspan x="0" y="0" class="t1">한</tspan><tspan  y="0" class="t1">
</tspan>
	</text>
</svg>